<mxfile host="65bd71144e">
    <diagram id="8NPttiS8wj9C9WALMBub" name="Página-1">
        <mxGraphModel dx="840" dy="514" grid="1" gridSize="10" guides="1" tooltips="1" connect="1" arrows="1" fold="1" page="1" pageScale="1" pageWidth="827" pageHeight="1169" background="none" math="0" shadow="0">
            <root>
                <mxCell id="0"/>
                <mxCell id="1" parent="0"/>
                <mxCell id="2" value="ContaBanco" style="swimlane;fontStyle=1;align=center;verticalAlign=top;childLayout=stackLayout;horizontal=1;startSize=26;horizontalStack=0;resizeParent=1;resizeParentMax=0;resizeLast=0;collapsible=1;marginBottom=0;" parent="1" vertex="1">
                    <mxGeometry x="130" y="30" width="160" height="320" as="geometry"/>
                </mxCell>
                <mxCell id="3" value="+ numConta&#10;# tipo&#10;- dono&#10;- saldo&#10;- status&#10;&#10;" style="text;strokeColor=none;fillColor=none;align=left;verticalAlign=top;spacingLeft=4;spacingRight=4;overflow=hidden;rotatable=0;points=[[0,0.5],[1,0.5]];portConstraint=eastwest;" parent="2" vertex="1">
                    <mxGeometry y="26" width="160" height="154" as="geometry"/>
                </mxCell>
                <mxCell id="4" value="" style="line;strokeWidth=1;fillColor=none;align=left;verticalAlign=middle;spacingTop=-1;spacingLeft=3;spacingRight=3;rotatable=0;labelPosition=right;points=[];portConstraint=eastwest;" parent="2" vertex="1">
                    <mxGeometry y="180" width="160" height="8" as="geometry"/>
                </mxCell>
                <mxCell id="5" value="+ abrirConta()&#10;+ fecharConta()&#10;+depositar()&#10;+sacar()&#10;+pegarMensalidade()" style="text;strokeColor=none;fillColor=none;align=left;verticalAlign=top;spacingLeft=4;spacingRight=4;overflow=hidden;rotatable=0;points=[[0,0.5],[1,0.5]];portConstraint=eastwest;" parent="2" vertex="1">
                    <mxGeometry y="188" width="160" height="132" as="geometry"/>
                </mxCell>
            </root>
        </mxGraphModel>
    </diagram>
    <diagram id="_R3aYSkyDJx1e74EiGpC" name="Página-2">
        <mxGraphModel dx="474" dy="514" grid="1" gridSize="10" guides="1" tooltips="1" connect="1" arrows="1" fold="1" page="1" pageScale="1" pageWidth="827" pageHeight="1169" math="0" shadow="0">
            <root>
                <mxCell id="6gAZg5FS1jYp9FhyaTiI-0"/>
                <mxCell id="6gAZg5FS1jYp9FhyaTiI-1" parent="6gAZg5FS1jYp9FhyaTiI-0"/>
                <mxCell id="6gAZg5FS1jYp9FhyaTiI-2" value="&lt;span&gt;&lt;b&gt;&amp;lt;&amp;lt; interface &amp;gt;&amp;gt;&lt;/b&gt;&lt;/span&gt;&lt;div&gt;&lt;b&gt;Controlador&lt;/b&gt;&lt;/div&gt;&lt;div&gt;&lt;b&gt;&lt;br&gt;&lt;/b&gt;&lt;/div&gt;&lt;div&gt;&lt;b&gt;ligar()&lt;/b&gt;&lt;/div&gt;&lt;div&gt;&lt;b&gt;desligar()&lt;/b&gt;&lt;/div&gt;&lt;div&gt;&lt;b&gt;abrirMenu()&lt;/b&gt;&lt;/div&gt;&lt;div&gt;&lt;b&gt;fecharMenu()&lt;/b&gt;&lt;/div&gt;&lt;div&gt;&lt;b&gt;maisVolume()&lt;/b&gt;&lt;/div&gt;&lt;div&gt;&lt;b&gt;menos Volume()&lt;/b&gt;&lt;/div&gt;&lt;div&gt;&lt;b&gt;ligarMudo()&lt;/b&gt;&lt;/div&gt;&lt;div&gt;&lt;b&gt;desligarMudo()&lt;/b&gt;&lt;/div&gt;&lt;div&gt;&lt;b&gt;play()&lt;/b&gt;&lt;/div&gt;&lt;div&gt;&lt;b&gt;pause()&lt;/b&gt;&lt;/div&gt;" style="html=1;" parent="6gAZg5FS1jYp9FhyaTiI-1" vertex="1">
                    <mxGeometry x="30" y="20" width="200" height="210" as="geometry"/>
                </mxCell>
                <mxCell id="6gAZg5FS1jYp9FhyaTiI-7" value="Controle remoto" style="swimlane;fontStyle=1;align=center;verticalAlign=top;childLayout=stackLayout;horizontal=1;startSize=26;horizontalStack=0;resizeParent=1;resizeParentMax=0;resizeLast=0;collapsible=1;marginBottom=0;" parent="6gAZg5FS1jYp9FhyaTiI-1" vertex="1">
                    <mxGeometry x="254" y="20" width="160" height="390" as="geometry"/>
                </mxCell>
                <mxCell id="6gAZg5FS1jYp9FhyaTiI-8" value=" - volume&#10; - ligado&#10; - tocando" style="text;strokeColor=none;fillColor=none;align=left;verticalAlign=top;spacingLeft=4;spacingRight=4;overflow=hidden;rotatable=0;points=[[0,0.5],[1,0.5]];portConstraint=eastwest;" parent="6gAZg5FS1jYp9FhyaTiI-7" vertex="1">
                    <mxGeometry y="26" width="160" height="64" as="geometry"/>
                </mxCell>
                <mxCell id="6gAZg5FS1jYp9FhyaTiI-9" value="" style="line;strokeWidth=1;fillColor=none;align=left;verticalAlign=middle;spacingTop=-1;spacingLeft=3;spacingRight=3;rotatable=0;labelPosition=right;points=[];portConstraint=eastwest;" parent="6gAZg5FS1jYp9FhyaTiI-7" vertex="1">
                    <mxGeometry y="90" width="160" height="18" as="geometry"/>
                </mxCell>
                <mxCell id="6gAZg5FS1jYp9FhyaTiI-10" value="+ method(type): type&#10;&#10;+ligar()&#10;+desligar()&#10;+abrirMenu()&#10;+fecharMenu()&#10;+maisVolume()&#10;+menosVolume(&#10;+ligarMudo()&#10;+desligar Mudo()&#10;+play()&#10;+pause()&#10;&#10; setVolume()&#10; getVolume()&#10; setLigado()&#10; getLigado()&#10; set Tocando()&#10; get Tocando()" style="text;strokeColor=none;fillColor=none;align=left;verticalAlign=top;spacingLeft=4;spacingRight=4;overflow=hidden;rotatable=0;points=[[0,0.5],[1,0.5]];portConstraint=eastwest;" parent="6gAZg5FS1jYp9FhyaTiI-7" vertex="1">
                    <mxGeometry y="108" width="160" height="282" as="geometry"/>
                </mxCell>
                <mxCell id="6gAZg5FS1jYp9FhyaTiI-11" value="Classname" style="swimlane;fontStyle=0;childLayout=stackLayout;horizontal=1;startSize=26;fillColor=none;horizontalStack=0;resizeParent=1;resizeParentMax=0;resizeLast=0;collapsible=1;marginBottom=0;" parent="6gAZg5FS1jYp9FhyaTiI-1" vertex="1">
                    <mxGeometry x="430" y="20" width="140" height="104" as="geometry"/>
                </mxCell>
                <mxCell id="6gAZg5FS1jYp9FhyaTiI-12" value="+ field: type" style="text;strokeColor=none;fillColor=none;align=left;verticalAlign=top;spacingLeft=4;spacingRight=4;overflow=hidden;rotatable=0;points=[[0,0.5],[1,0.5]];portConstraint=eastwest;" parent="6gAZg5FS1jYp9FhyaTiI-11" vertex="1">
                    <mxGeometry y="26" width="140" height="26" as="geometry"/>
                </mxCell>
                <mxCell id="6gAZg5FS1jYp9FhyaTiI-13" value="+ field: type" style="text;strokeColor=none;fillColor=none;align=left;verticalAlign=top;spacingLeft=4;spacingRight=4;overflow=hidden;rotatable=0;points=[[0,0.5],[1,0.5]];portConstraint=eastwest;" parent="6gAZg5FS1jYp9FhyaTiI-11" vertex="1">
                    <mxGeometry y="52" width="140" height="26" as="geometry"/>
                </mxCell>
                <mxCell id="6gAZg5FS1jYp9FhyaTiI-14" value="+ field: type" style="text;strokeColor=none;fillColor=none;align=left;verticalAlign=top;spacingLeft=4;spacingRight=4;overflow=hidden;rotatable=0;points=[[0,0.5],[1,0.5]];portConstraint=eastwest;" parent="6gAZg5FS1jYp9FhyaTiI-11" vertex="1">
                    <mxGeometry y="78" width="140" height="26" as="geometry"/>
                </mxCell>
            </root>
        </mxGraphModel>
    </diagram>
    <diagram id="M5xTcMq0ji_4YYe_ugTF" name="Página-3">
        <mxGraphModel dx="196" dy="428" grid="1" gridSize="10" guides="1" tooltips="1" connect="1" arrows="1" fold="1" page="1" pageScale="1" pageWidth="827" pageHeight="1169" math="0" shadow="0">
            <root>
                <mxCell id="EIlo2VkVKVXqwS59TLdh-0"/>
                <mxCell id="EIlo2VkVKVXqwS59TLdh-1" parent="EIlo2VkVKVXqwS59TLdh-0"/>
                <mxCell id="EIlo2VkVKVXqwS59TLdh-2" value="Lutador" style="swimlane;fontStyle=1;align=center;verticalAlign=top;childLayout=stackLayout;horizontal=1;startSize=26;horizontalStack=0;resizeParent=1;resizeParentMax=0;resizeLast=0;collapsible=1;marginBottom=0;" vertex="1" parent="EIlo2VkVKVXqwS59TLdh-1">
                    <mxGeometry x="80" width="160" height="250" as="geometry"/>
                </mxCell>
                <mxCell id="EIlo2VkVKVXqwS59TLdh-3" value="- nome&#10;- nacionalidade&#10;- idade&#10;- altura&#10;- peso&#10;- categoria&#10;- vitorias&#10;- derrotas&#10;- empates" style="text;strokeColor=none;fillColor=none;align=left;verticalAlign=top;spacingLeft=4;spacingRight=4;overflow=hidden;rotatable=0;points=[[0,0.5],[1,0.5]];portConstraint=eastwest;" vertex="1" parent="EIlo2VkVKVXqwS59TLdh-2">
                    <mxGeometry y="26" width="160" height="134" as="geometry"/>
                </mxCell>
                <mxCell id="EIlo2VkVKVXqwS59TLdh-4" value="" style="line;strokeWidth=1;fillColor=none;align=left;verticalAlign=middle;spacingTop=-1;spacingLeft=3;spacingRight=3;rotatable=0;labelPosition=right;points=[];portConstraint=eastwest;" vertex="1" parent="EIlo2VkVKVXqwS59TLdh-2">
                    <mxGeometry y="160" width="160" height="8" as="geometry"/>
                </mxCell>
                <mxCell id="EIlo2VkVKVXqwS59TLdh-5" value="+ apresentar()&#10;+ status()&#10;+ ganharLuta()&#10;+ perderLuta()&#10;+ empatarLuta()&#10;" style="text;strokeColor=none;fillColor=none;align=left;verticalAlign=top;spacingLeft=4;spacingRight=4;overflow=hidden;rotatable=0;points=[[0,0.5],[1,0.5]];portConstraint=eastwest;" vertex="1" parent="EIlo2VkVKVXqwS59TLdh-2">
                    <mxGeometry y="168" width="160" height="82" as="geometry"/>
                </mxCell>
                <mxCell id="EIlo2VkVKVXqwS59TLdh-6" value="Luta" style="swimlane;fontStyle=1;align=center;verticalAlign=top;childLayout=stackLayout;horizontal=1;startSize=26;horizontalStack=0;resizeParent=1;resizeParentMax=0;resizeLast=0;collapsible=1;marginBottom=0;" vertex="1" parent="EIlo2VkVKVXqwS59TLdh-1">
                    <mxGeometry x="80" y="260" width="160" height="140" as="geometry"/>
                </mxCell>
                <mxCell id="EIlo2VkVKVXqwS59TLdh-7" value="- desafiado&#10;- desafiante&#10;- rounds&#10;- aprovada" style="text;strokeColor=none;fillColor=none;align=left;verticalAlign=top;spacingLeft=4;spacingRight=4;overflow=hidden;rotatable=0;points=[[0,0.5],[1,0.5]];portConstraint=eastwest;" vertex="1" parent="EIlo2VkVKVXqwS59TLdh-6">
                    <mxGeometry y="26" width="160" height="64" as="geometry"/>
                </mxCell>
                <mxCell id="EIlo2VkVKVXqwS59TLdh-8" value="" style="line;strokeWidth=1;fillColor=none;align=left;verticalAlign=middle;spacingTop=-1;spacingLeft=3;spacingRight=3;rotatable=0;labelPosition=right;points=[];portConstraint=eastwest;" vertex="1" parent="EIlo2VkVKVXqwS59TLdh-6">
                    <mxGeometry y="90" width="160" height="8" as="geometry"/>
                </mxCell>
                <mxCell id="EIlo2VkVKVXqwS59TLdh-9" value="+ marcarLuta()&#10;+ lutar()" style="text;strokeColor=none;fillColor=none;align=left;verticalAlign=top;spacingLeft=4;spacingRight=4;overflow=hidden;rotatable=0;points=[[0,0.5],[1,0.5]];portConstraint=eastwest;" vertex="1" parent="EIlo2VkVKVXqwS59TLdh-6">
                    <mxGeometry y="98" width="160" height="42" as="geometry"/>
                </mxCell>
                <mxCell id="EIlo2VkVKVXqwS59TLdh-10" value="" style="endArrow=diamondThin;endFill=1;endSize=24;html=1;exitX=1;exitY=0.5;exitDx=0;exitDy=0;entryX=1.014;entryY=0.172;entryDx=0;entryDy=0;entryPerimeter=0;" edge="1" parent="EIlo2VkVKVXqwS59TLdh-1" source="EIlo2VkVKVXqwS59TLdh-5" target="EIlo2VkVKVXqwS59TLdh-7">
                    <mxGeometry width="160" relative="1" as="geometry">
                        <mxPoint x="230" y="240" as="sourcePoint"/>
                        <mxPoint x="390" y="240" as="targetPoint"/>
                        <Array as="points">
                            <mxPoint x="280" y="209"/>
                            <mxPoint x="280" y="297"/>
                        </Array>
                    </mxGeometry>
                </mxCell>
            </root>
        </mxGraphModel>
    </diagram>
</mxfile>